{"title":"Inherent.Vice.2014.WEB.DL.XviD.AC3-RARBG","uid":11771419,"size":2052797417,"categoryP":"video","categoryS":"movies","magnet":"?xt=urn:btih:b11365f76e8367dda1d6cd67b7658f0706570065&amp;dn=Inherent.Vice.2014.WEB.DL.XviD.AC3-RARBG&amp;tr=udp%3A%2F%2Ftracker.openbittorrent.com%3A80&amp;tr=udp%3A%2F%2Fopen.demonii.com%3A1337&amp;tr=udp%3A%2F%2Ftracker.coppersurfer.tk%3A6969&amp;tr=udp%3A%2F%2Fexodus.desync.com%3A6969","seeders":4,"leechers":1,"uploader":"vickey1992","files":5,"time":1427096898,"description":"Info:\n\n[mediainfo]\n\nFormat : AVI\nFormat/Info : Audio Video Interleave\nFile size : 1.91 GiB\nDuration : 2h 28mn\nOverall bit rate : 1 840 Kbps\nMovie name : RARBG.COM - Inherent.Vice.2014.WEB.DL.XviD.AC3-RARBG\nWriting library : VirtualDub build 35491/release\nComment : RARBG.COM - Inherent.Vice.2014.WEB.DL.XviD.AC3-RARBG\n\nVideo\nID : 0\nFormat : MPEG-4 Visual\nFormat profile : Simple@L5\nFormat settings, BVOP : No\nFormat settings, QPel : No\nFormat settings, GMC : No warppoints\nFormat settings, Matrix : Default (H.263)\nCodec ID : XVID\nCodec ID/Hint : XviD\nDuration : 2h 28mn\nBit rate : 1 446 Kbps\nWidth : 720 pixels\nHeight : 384 pixels\nDisplay aspect ratio : 1.85:1\nFrame rate : 23.976 fps\nColor space : YUV\nChroma subsampling : 4:2:0\nBit depth : 8 bits\nScan type : Progressive\nCompression mode : Lossy\nBits/(Pixel*Frame) : 0.218\nStream size : 1.50 GiB (79%)\nWriting library : Lavc56.20.100\n\nAudio\nID : 1\nFormat : AC-3\nFormat/Info : Audio Coding 3\nMode extension : CM (complete main)\nFormat settings, Endianness : Big\nCodec ID : 2000\nDuration : 2h 28mn\nBit rate mode : Constant\nBit rate : 384 Kbps\nChannel(s) : 6 channels\nChannel positions : Front: L C R, Side: L R, LFE\nSampling rate : 48.0 KHz\nBit depth : 16 bits\nCompression mode : Lossy\nStream size : 408 MiB (21%)\nAlignment : Aligned on interleaves\nInterleave, duration : 42 ms (1.00 video frame)\nInterleave, preload duration : 512 ms","torrent":{"xt":"urn:btih:b11365f76e8367dda1d6cd67b7658f0706570065","amp;dn":"Inherent.Vice.2014.WEB.DL.XviD.AC3-RARBG","amp;tr":["udp%3A%2F%2Ftracker.openbittorrent.com%3A80","udp%3A%2F%2Fopen.demonii.com%3A1337","udp%3A%2F%2Ftracker.coppersurfer.tk%3A6969","udp%3A%2F%2Fexodus.desync.com%3A6969"],"infoHash":"b11365f76e8367dda1d6cd67b7658f0706570065","infoHashBuffer":{"type":"Buffer","data":[177,19,101,247,110,131,103,221,161,214,205,103,183,101,143,7,6,87,0,101]},"announce":[],"urlList":[]}}